<svg id="Layer_1" data-name="Layer 1" xmlns="http://www.w3.org/2000/svg" viewBox="0 0 107.28 98.83"><defs><style>.cls-1{fill:#691030;}.cls-2{fill:#005083;}.cls-3{fill:#5b5151;}</style></defs><title>icon-filter-to-10K</title><path class="cls-1" d="M25.39,63.78c7.51,0,13.59-8,13.59-15.49a13.59,13.59,0,0,0-27.18,0C11.8,55.8,17.88,63.78,25.39,63.78Z"/><path class="cls-1" d="M44,68.91a3.12,3.12,0,0,0,.59-.72,17.88,17.88,0,0,0-9.06-4.29A15.56,15.56,0,0,1,26,67.12H24.56A15.83,15.83,0,0,1,15,63.9,18,18,0,0,0,0,81.78c0,4.89,11.32,8.94,25.39,8.94a62.89,62.89,0,0,0,12.16-1.07,7.61,7.61,0,0,1-.36-2.38A28,28,0,0,1,44,68.91Z"/><path class="cls-2" d="M68.54,62.59a13.64,13.64,0,0,0,12.16,0C87.38,59.49,92,51.62,92,44.11a17.41,17.41,0,1,0-34.81.12C57.22,51.62,61.87,59.49,68.54,62.59Z"/><path class="cls-2" d="M87.74,64.26a19.11,19.11,0,0,1-5.37,2.86,18.8,18.8,0,0,1-6.91,1.19H73.67a22,22,0,0,1-6.92-1.19,23.24,23.24,0,0,1-5.36-2.86,22.87,22.87,0,0,0-13.71,7.63A23.11,23.11,0,0,0,42,87.27a5.11,5.11,0,0,0,.24,1.31C44,94.3,57.81,98.83,74.62,98.83c18,0,32.66-5.13,32.66-11.56A23.23,23.23,0,0,0,87.74,64.26Z"/><path class="cls-3" d="M68.75,1.46A2.32,2.32,0,0,1,68.24,4L52,20.28a2.67,2.67,0,0,0-.55,1.32V44.34A2.35,2.35,0,0,1,50,46.51a2.22,2.22,0,0,1-.91.19A2.36,2.36,0,0,1,47.42,46l-7-7a2.36,2.36,0,0,1-.69-1.67V21.6a2.67,2.67,0,0,0-.55-1.32L22.92,4a2.36,2.36,0,0,1,1.67-4h42A2.34,2.34,0,0,1,68.75,1.46Z"/></svg>