<?xml version="1.0" encoding="UTF-8" standalone="no"?>
<!DOCTYPE svg PUBLIC "-//W3C//DTD SVG 1.1//EN" "http://www.w3.org/Graphics/SVG/1.1/DTD/svg11.dtd">
<svg width="100%" height="100%" viewBox="0 0 1043 144" version="1.1" xmlns="http://www.w3.org/2000/svg" xmlns:xlink="http://www.w3.org/1999/xlink" xml:space="preserve" style="fill-rule:evenodd;clip-rule:evenodd;stroke-linejoin:round;stroke-miterlimit:1.41421;">
    <g>
        <g>
            <path d="M288.1,20.5L295.9,20.5L295.9,55.5L288.1,55.5L271.4,33.5L271.4,55.5L263.6,55.5L263.6,20.5L270.9,20.5L288.1,43.1L288.1,20.5Z" style="fill:rgb(191,6,59);fill-rule:nonzero;"/>
            <path d="M329.6,55.6L326.3,48L311.6,48L308.3,55.6L300,55.6L315.1,20.6L322.7,20.6L337.8,55.6L329.6,55.6ZM319,30.9L314.6,41.1L323.4,41.1L319,30.9Z" style="fill:rgb(191,6,59);fill-rule:nonzero;"/>
            <path d="M354.2,27.3L354.2,55.6L346.4,55.6L346.4,27.3L336.5,27.3L336.5,20.5L364.2,20.5L364.2,27.3L354.2,27.3Z" style="fill:rgb(191,6,59);fill-rule:nonzero;"/>
            <rect x="369.9" y="20.5" width="7.8" height="35" style="fill:rgb(191,6,59);fill-rule:nonzero;"/>
            <path d="M415.8,50.7C412.3,54.2 407.9,55.9 402.7,55.9C397.5,55.9 393.2,54.2 389.6,50.7C386.1,47.2 384.3,42.9 384.3,37.8C384.3,32.7 386.1,28.3 389.6,24.9C393.1,21.4 397.5,19.7 402.7,19.7C407.9,19.7 412.2,21.4 415.8,24.9C419.3,28.4 421.1,32.7 421.1,37.8C421.1,42.9 419.3,47.3 415.8,50.7ZM413.1,37.8C413.1,34.7 412.1,32 410.1,29.8C408.1,27.6 405.6,26.5 402.7,26.5C399.8,26.5 397.3,27.6 395.3,29.8C393.3,32 392.3,34.7 392.3,37.8C392.3,40.9 393.3,43.6 395.3,45.8C397.3,48 399.8,49.1 402.7,49.1C405.6,49.1 408.1,48 410.1,45.8C412.1,43.6 413.1,41 413.1,37.8Z" style="fill:rgb(191,6,59);fill-rule:nonzero;"/>
            <path d="M452.2,20.5L460,20.5L460,55.5L452.2,55.5L435.5,33.5L435.5,55.5L427.7,55.5L427.7,20.5L435,20.5L452.2,43.1L452.2,20.5Z" style="fill:rgb(191,6,59);fill-rule:nonzero;"/>
            <path d="M493.7,55.6L490.4,48L475.7,48L472.4,55.6L464.1,55.6L479.2,20.6L486.8,20.6L501.9,55.6L493.7,55.6ZM483.1,30.9L478.7,41.1L487.5,41.1L483.1,30.9Z" style="fill:rgb(191,6,59);fill-rule:nonzero;"/>
            <path d="M506,55.6L506,20.6L513.8,20.6L513.8,48.7L528.7,48.7L528.7,55.7L506,55.7L506,55.6Z" style="fill:rgb(191,6,59);fill-rule:nonzero;"/>
            <path d="M563.9,48.6C567.7,48.6 570.9,47.1 573.3,44L578.3,49.2C574.3,53.7 569.6,55.9 564.2,55.9C558.8,55.9 554.4,54.2 550.9,50.8C547.4,47.4 545.7,43.1 545.7,37.9C545.7,32.7 547.5,28.4 551,24.9C554.6,21.4 558.9,19.7 564.1,19.7C569.9,19.7 574.7,21.9 578.5,26.3L573.6,31.8C571.1,28.7 568.1,27.2 564.4,27.2C561.5,27.2 558.9,28.2 556.9,30.1C554.8,32 553.8,34.6 553.8,37.9C553.8,41.2 554.8,43.8 556.8,45.7C558.7,47.7 561,48.6 563.9,48.6Z" style="fill:rgb(191,6,59);fill-rule:nonzero;"/>
            <path d="M609.2,55.6L605.9,48L591.2,48L587.9,55.6L579.6,55.6L594.7,20.6L602.3,20.6L617.4,55.6L609.2,55.6ZM598.6,30.9L594.2,41.1L603,41.1L598.6,30.9Z" style="fill:rgb(191,6,59);fill-rule:nonzero;"/>
            <path d="M646.1,20.5L653.9,20.5L653.9,55.5L646.1,55.5L629.4,33.5L629.4,55.5L621.6,55.5L621.6,20.5L628.9,20.5L646.1,43.1L646.1,20.5Z" style="fill:rgb(191,6,59);fill-rule:nonzero;"/>
            <path d="M678.6,48.6C682.4,48.6 685.6,47.1 688,44L693,49.2C689,53.7 684.3,55.9 678.9,55.9C673.5,55.9 669.1,54.2 665.6,50.8C662.1,47.4 660.4,43.1 660.4,37.9C660.4,32.7 662.2,28.4 665.7,24.9C669.3,21.4 673.6,19.7 678.8,19.7C684.5,19.7 689.4,21.9 693.2,26.3L688.3,31.8C685.8,28.7 682.8,27.2 679.1,27.2C676.2,27.2 673.6,28.2 671.6,30.1C669.5,32 668.5,34.6 668.5,37.9C668.5,41.2 669.5,43.8 671.5,45.7C673.4,47.7 675.8,48.6 678.6,48.6Z" style="fill:rgb(191,6,59);fill-rule:nonzero;"/>
            <path d="M724.5,20.5L724.5,27.5L707.1,27.5L707.1,34.7L722.8,34.7L722.8,41.4L707.1,41.4L707.1,48.7L725.1,48.7L725.1,55.6L699.3,55.6L699.3,20.6L724.5,20.6L724.5,20.5Z" style="fill:rgb(191,6,59);fill-rule:nonzero;"/>
            <path d="M760.4,32.1C760.4,37.7 758.2,41.3 753.7,43L762.6,55.5L753,55.5L745.2,44.3L739.8,44.3L739.8,55.5L732,55.5L732,20.5L745.3,20.5C750.7,20.5 754.6,21.4 757,23.3C759.3,25.1 760.4,28.1 760.4,32.1ZM751,36.3C752,35.4 752.5,34.1 752.5,32.2C752.5,30.3 752,29 751,28.3C750,27.6 748.2,27.2 745.7,27.2L739.8,27.2L739.8,37.6L745.5,37.6C748.2,37.6 750.1,37.2 751,36.3Z" style="fill:rgb(191,6,59);fill-rule:nonzero;"/>
            <rect x="781.7" y="20.5" width="7.8" height="35" style="fill:rgb(191,6,59);fill-rule:nonzero;"/>
            <path d="M822.7,20.5L830.5,20.5L830.5,55.5L822.7,55.5L806,33.5L806,55.5L798.2,55.5L798.2,20.5L805.5,20.5L822.7,43.1L822.7,20.5Z" style="fill:rgb(191,6,59);fill-rule:nonzero;"/>
            <path d="M847.3,27.5C846.5,28.1 846.2,28.9 846.2,30C846.2,31 846.7,31.8 847.6,32.4C848.5,33 850.6,33.7 854,34.5C857.4,35.3 859.9,36.5 861.7,38.2C863.5,39.8 864.5,42.2 864.5,45.4C864.5,48.5 863.3,51.1 861,53C858.6,55 855.5,55.9 851.7,55.9C846.2,55.9 841.2,53.8 836.7,49.7L841.4,44C845.2,47.3 848.7,49 851.9,49C853.3,49 854.5,48.7 855.3,48.1C856.1,47.5 856.5,46.6 856.5,45.6C856.5,44.5 856.1,43.7 855.2,43.1C854.3,42.5 852.6,41.9 850,41.2C845.9,40.2 842.9,39 841.1,37.4C839.2,35.8 838.3,33.4 838.3,30.1C838.3,26.8 839.5,24.2 841.9,22.4C844.3,20.6 847.3,19.7 850.8,19.7C853.1,19.7 855.5,20.1 857.8,20.9C860.1,21.7 862.2,22.8 863.9,24.3L859.9,30C856.9,27.7 853.7,26.5 850.5,26.5C849.1,26.6 848.1,26.9 847.3,27.5Z" style="fill:rgb(191,6,59);fill-rule:nonzero;"/>
            <path d="M885.6,27.3L885.6,55.6L877.8,55.6L877.8,27.3L867.9,27.3L867.9,20.5L895.6,20.5L895.6,27.3L885.6,27.3Z" style="fill:rgb(191,6,59);fill-rule:nonzero;"/>
            <rect x="901.3" y="20.5" width="7.8" height="35" style="fill:rgb(191,6,59);fill-rule:nonzero;"/>
            <path d="M932.6,27.3L932.6,55.6L924.8,55.6L924.8,27.3L914.9,27.3L914.9,20.5L942.6,20.5L942.6,27.3L932.6,27.3Z" style="fill:rgb(191,6,59);fill-rule:nonzero;"/>
            <path d="M957.5,46.5C958.8,48.1 960.6,48.9 962.8,48.9C965,48.9 966.8,48.1 968,46.5C969.2,44.9 969.9,42.7 969.9,39.9L969.9,20.5L977.7,20.5L977.7,40.1C977.7,45.2 976.3,49.1 973.5,51.8C970.7,54.5 967.1,55.9 962.7,55.9C958.3,55.9 954.7,54.5 951.9,51.8C949.1,49.1 947.7,45.2 947.7,40.1L947.7,20.5L955.5,20.5L955.5,39.9C955.5,42.7 956.2,44.9 957.5,46.5Z" style="fill:rgb(191,6,59);fill-rule:nonzero;"/>
            <path d="M1000.7,27.3L1000.7,55.6L992.9,55.6L992.9,27.3L983,27.3L983,20.5L1010.7,20.5L1010.7,27.3L1000.7,27.3Z" style="fill:rgb(191,6,59);fill-rule:nonzero;"/>
            <path d="M1041.6,20.5L1041.6,27.5L1024.2,27.5L1024.2,34.7L1039.9,34.7L1039.9,41.4L1024.2,41.4L1024.2,48.7L1042.2,48.7L1042.2,55.6L1016.4,55.6L1016.4,20.6L1041.6,20.6L1041.6,20.5Z" style="fill:rgb(191,6,59);fill-rule:nonzero;"/>
            <path d="M299.6,103.7L311.3,103.7L311.3,122.2C306.1,128 299,130.9 289.8,130.9C282.1,130.9 275.7,128.4 270.5,123.3C265.3,118.2 262.7,111.8 262.7,104.1C262.7,96.4 265.4,89.9 270.7,84.7C276,79.5 282.4,76.9 289.9,76.9C297.4,76.9 303.9,79.4 309.4,84.3L303.4,93C301.1,91 298.9,89.6 296.9,88.8C294.9,88 292.8,87.6 290.5,87.6C286.1,87.6 282.3,89.1 279.3,92.1C276.3,95.1 274.7,99.1 274.7,104C274.7,108.9 276.2,112.9 279.1,115.8C282,118.8 285.5,120.2 289.5,120.2C293.5,120.2 296.9,119.4 299.6,117.9L299.6,103.7L299.6,103.7Z" style="fill:rgb(101,102,106);fill-rule:nonzero;"/>
            <path d="M361.6,84.9C366.6,89.5 369.1,95.8 369.1,103.9C369.1,112 366.7,118.4 361.8,123.2C356.9,128 349.5,130.3 339.6,130.3L321.8,130.3L321.8,78L340.2,78C349.5,78 356.6,80.3 361.6,84.9ZM353.1,115.9C356,113.2 357.4,109.3 357.4,104.2C357.4,99.1 356,95.1 353.1,92.4C350.2,89.6 345.8,88.3 339.9,88.3L333.4,88.3L333.4,120L340.8,120C346.1,119.9 350.2,118.6 353.1,115.9Z" style="fill:rgb(101,102,106);fill-rule:nonzero;"/>
            <path d="M403.1,119.9C408.8,119.9 413.5,117.6 417.1,113.1L424.6,120.8C418.7,127.5 411.7,130.8 403.7,130.8C395.7,130.8 389,128.3 383.8,123.2C378.6,118.1 376,111.7 376,104C376,96.3 378.7,89.8 384,84.6C389.3,79.4 395.8,76.8 403.5,76.8C412.1,76.8 419.2,80.1 425,86.6L417.8,94.8C414,90.3 409.4,88 404,88C399.6,88 395.9,89.4 392.8,92.3C389.7,95.2 388.1,99 388.1,103.9C388.1,108.8 389.6,112.7 392.5,115.6C395.4,118.5 399,119.9 403.1,119.9Z" style="fill:rgb(101,102,106);fill-rule:nonzero;"/>
            <path d="M490.4,84.9C495.4,89.5 497.9,95.8 497.9,103.9C497.9,112 495.5,118.4 490.6,123.2C485.7,128 478.3,130.3 468.4,130.3L450.6,130.3L450.6,78L469,78C478.3,78 485.5,80.3 490.4,84.9ZM481.9,115.9C484.8,113.2 486.2,109.3 486.2,104.2C486.2,99.1 484.8,95.1 481.9,92.4C479,89.6 474.6,88.3 468.7,88.3L462.2,88.3L462.2,120L469.6,120C474.9,119.9 479,118.6 481.9,115.9Z" style="fill:rgb(101,102,106);fill-rule:nonzero;"/>
            <path d="M540.5,130.2L530,130.2L530,125.3C527.1,128.9 523.5,130.8 519.3,130.8C515,130.8 511.5,129.6 508.6,127.1C505.7,124.6 504.3,121.3 504.3,117.2C504.3,113.1 505.8,110 508.8,108C511.8,106 515.9,104.9 521,104.9L529.4,104.9L529.4,104.7C529.4,100.4 527.1,98.3 522.6,98.3C520.7,98.3 518.6,98.7 516.4,99.5C514.2,100.3 512.4,101.2 510.9,102.4L505.9,95.2C511.2,91.4 517.2,89.4 524,89.4C528.9,89.4 532.9,90.6 535.9,93.1C539,95.5 540.5,99.4 540.5,104.7L540.5,130.2ZM529.2,114.9L529.2,113L522.2,113C517.7,113 515.5,114.4 515.5,117.2C515.5,118.6 516,119.8 517.1,120.5C518.2,121.3 519.7,121.7 521.7,121.7C523.7,121.7 525.4,121.1 527,119.9C528.4,118.6 529.2,117 529.2,114.9Z" style="fill:rgb(101,102,106);fill-rule:nonzero;"/>
            <path d="M563.6,98.1L563.6,116.1C563.6,117.6 564,118.9 564.8,119.7C565.6,120.6 566.5,121 567.6,121C569.7,121 571.5,120.1 572.9,118.2L577.1,126C573.6,129.2 569.9,130.8 566.1,130.8C562.2,130.8 559,129.5 556.3,127C553.6,124.5 552.3,121 552.3,116.6L552.3,98.1L547.6,98.1L547.6,90L552.3,90L552.3,78L563.6,78L563.6,90L573.3,90L573.3,98.1L563.6,98.1Z" style="fill:rgb(101,102,106);fill-rule:nonzero;"/>
            <path d="M617.2,130.2L606.7,130.2L606.7,125.3C603.8,128.9 600.2,130.8 596,130.8C591.7,130.8 588.2,129.6 585.3,127.1C582.4,124.6 581,121.3 581,117.2C581,113.1 582.5,110 585.5,108C588.5,106 592.6,104.9 597.7,104.9L606.1,104.9L606.1,104.7C606.1,100.4 603.8,98.3 599.3,98.3C597.4,98.3 595.3,98.7 593.1,99.5C590.9,100.3 589.1,101.2 587.6,102.4L582.6,95.2C587.9,91.4 593.9,89.4 600.7,89.4C605.6,89.4 609.6,90.6 612.6,93.1C615.7,95.5 617.2,99.4 617.2,104.7L617.2,130.2ZM606,114.9L606,113L599,113C594.5,113 592.3,114.4 592.3,117.2C592.3,118.6 592.8,119.8 593.9,120.5C595,121.3 596.5,121.7 598.5,121.7C600.5,121.7 602.2,121.1 603.8,119.9C605.2,118.6 606,117 606,114.9Z" style="fill:rgb(101,102,106);fill-rule:nonzero;"/>
            <path d="M684.3,82.7C688,85.8 689.8,90.6 689.8,97C689.8,103.4 687.9,108.2 684.2,111.2C680.4,114.2 674.7,115.7 667,115.7L660.1,115.7L660.1,130.3L648.5,130.3L648.5,78L666.9,78C674.8,78 680.6,79.6 684.3,82.7ZM675.7,103.2C677.1,101.6 677.8,99.3 677.8,96.3C677.8,93.3 676.9,91.1 675.1,89.9C673.3,88.6 670.5,88 666.6,88L660,88L660,105.5L667.8,105.5C671.7,105.6 674.3,104.8 675.7,103.2Z" style="fill:rgb(101,102,106);fill-rule:nonzero;"/>
            <path d="M734.4,110.2C734.4,116 732.4,120.9 728.4,124.9C724.4,128.9 719.3,130.9 713.2,130.9C707.1,130.9 702,128.9 698,124.9C694,120.9 692,116 692,110.2C692,104.4 694,99.5 698,95.5C702,91.5 707.1,89.5 713.2,89.5C719.3,89.5 724.4,91.5 728.4,95.5C732.4,99.4 734.4,104.3 734.4,110.2ZM703.2,110.2C703.2,113.5 704.1,116.2 706,118.2C707.9,120.3 710.3,121.3 713.2,121.3C716.1,121.3 718.5,120.3 720.4,118.2C722.3,116.1 723.2,113.5 723.2,110.2C723.2,106.9 722.3,104.2 720.4,102.1C718.5,100 716.1,99 713.2,99C710.3,99 707.9,100 706,102.1C704.1,104.2 703.2,106.9 703.2,110.2Z" style="fill:rgb(101,102,106);fill-rule:nonzero;"/>
            <path d="M760.8,99.9C757.5,99.9 755,101.1 753.3,103.4C751.7,105.8 750.8,108.9 750.8,112.8L750.8,130.2L739.6,130.2L739.6,90.1L750.8,90.1L750.8,95.4C752.2,93.8 754,92.4 756.2,91.2C758.4,90.1 760.6,89.5 762.8,89.4L762.9,99.9L760.8,99.9L760.8,99.9Z" style="fill:rgb(101,102,106);fill-rule:nonzero;"/>
            <path d="M783.8,98.1L783.8,116.1C783.8,117.6 784.2,118.9 785,119.7C785.8,120.6 786.7,121 787.8,121C789.9,121 791.7,120.1 793.1,118.2L797.3,126C793.8,129.2 790.1,130.8 786.3,130.8C782.4,130.8 779.2,129.5 776.5,127C773.8,124.5 772.5,121 772.5,116.6L772.5,98.1L767.8,98.1L767.8,90L772.5,90L772.5,78L783.8,78L783.8,90L793.5,90L793.5,98.1L783.8,98.1Z" style="fill:rgb(101,102,106);fill-rule:nonzero;"/>
            <path d="M837.4,130.2L826.9,130.2L826.9,125.3C824,128.9 820.4,130.8 816.2,130.8C811.9,130.8 808.4,129.6 805.5,127.1C802.6,124.6 801.2,121.3 801.2,117.2C801.2,113.1 802.7,110 805.7,108C808.7,106 812.8,104.9 817.9,104.9L826.3,104.9L826.3,104.7C826.3,100.4 824,98.3 819.5,98.3C817.6,98.3 815.5,98.7 813.3,99.5C811.1,100.3 809.3,101.2 807.8,102.4L802.8,95.2C808.1,91.4 814.1,89.4 820.9,89.4C825.8,89.4 829.8,90.6 832.8,93.1C835.9,95.5 837.4,99.4 837.4,104.7L837.4,130.2ZM826.1,114.9L826.1,113L819.1,113C814.6,113 812.4,114.4 812.4,117.2C812.4,118.6 812.9,119.8 814,120.5C815.1,121.3 816.6,121.7 818.6,121.7C820.6,121.7 822.3,121.1 823.9,119.9C825.3,118.6 826.1,117 826.1,114.9Z" style="fill:rgb(101,102,106);fill-rule:nonzero;"/>
            <rect x="847.6" y="74.8" width="11.2" height="55.4" style="fill:rgb(101,102,106);fill-rule:nonzero;"/>
        </g>
        <path d="M183.8,0L171.4,0L210,71L169.9,143L182.3,143C187,143 191.3,140.5 193.6,136.3L230.1,71L195.2,6.8C192.9,2.6 188.5,0 183.8,0Z" style="fill:rgb(191,6,59);fill-rule:nonzero;"/>
        <path d="M160.5,0.5L10.8,0.5C4.8,0.5 0,5.3 0,11.3L0,132.7C0,138.7 4.8,143.5 10.8,143.5L159,143.5L199.1,71.5L160.5,0.5Z" style="fill:rgb(101,102,106);fill-rule:nonzero;"/>
        <g>
            <path d="M65.3,85.4L33.6,37.7L23.7,37.7L23.7,103.3L33.8,103.3L33.8,56.7L64.6,103.2L64.7,103.3L75.3,103.3L75.3,37.7L65.3,37.7L65.3,85.4Z" style="fill:white;fill-rule:nonzero;"/>
            <rect x="87" y="37.7" width="11.3" height="65.6" style="fill:white;"/>
            <path d="M150.8,37.7L150.8,65.8L120.3,65.8L120.3,37.7L109,37.7L109,103.3L120.3,103.3L120.3,76.7L150.8,76.7L150.8,103.3L162,103.3L162,37.7L150.8,37.7Z" style="fill:white;fill-rule:nonzero;"/>
        </g>
    </g>
    <g transform="matrix(0.146304,0,0,0.146304,927.829,103.325)">
        <g transform="matrix(1,0,0,1,-255.992,-255.992)">
            <path d="M277.308,149.449L234.676,149.449C228.785,149.449 224.004,144.676 224.004,138.785C224.004,132.894 228.785,128.121 234.676,128.121L277.308,128.121C283.213,128.121 287.995,132.894 287.995,138.785C287.995,144.676 283.214,149.449 277.308,149.449Z" style="fill:rgb(246,187,66);fill-rule:nonzero;"/>
            <path d="M405.273,362.707C263.941,362.707 149.367,248.125 149.367,106.794C149.367,75.029 155.164,44.608 165.741,16.539C68.947,53.03 0.09,146.512 0.09,256.078C0.09,397.409 114.665,511.984 256.004,511.984C365.555,511.984 459.052,443.127 495.521,346.333C467.458,356.911 437.054,362.707 405.273,362.707Z" style="fill:rgb(255,206,84);fill-rule:nonzero;"/>
            <path d="M277.308,490.656C135.992,490.656 21.418,376.082 21.418,234.75C21.418,169.533 45.823,110.012 85.979,64.826C33.292,111.7 0.09,180.002 0.09,256.078C0.09,397.409 114.665,511.984 256.004,511.984C332.057,511.984 400.367,478.781 447.239,426.081C402.055,466.265 342.524,490.656 277.308,490.656Z" style="fill:rgb(246,187,66);fill-rule:nonzero;"/>
            <path d="M383.961,138.785C383.961,144.676 379.18,149.449 373.273,149.449C367.398,149.449 362.617,144.676 362.617,138.785C362.617,132.894 367.398,128.121 373.273,128.121C379.18,128.121 383.961,132.894 383.961,138.785Z" style="fill:rgb(74,137,220);fill-rule:nonzero;"/>
            <path d="M330.65,245.414C330.65,251.297 325.869,256.078 319.963,256.078C314.088,256.078 309.307,251.297 309.307,245.414C309.307,239.523 314.088,234.75 319.963,234.75C325.869,234.75 330.65,239.523 330.65,245.414Z" style="fill:rgb(72,207,173);fill-rule:nonzero;"/>
            <path d="M511.894,117.285C511.894,123.176 507.113,127.949 501.238,127.949C495.364,127.949 490.583,123.176 490.583,117.285C490.583,111.395 495.364,106.622 501.238,106.622C507.113,106.622 511.894,111.395 511.894,117.285Z" style="fill:rgb(237,85,100);fill-rule:nonzero;"/>
            <path d="M319.964,10.656C319.964,16.547 315.214,21.32 309.308,21.32C303.433,21.32 298.652,16.547 298.652,10.656C298.652,4.773 303.433,0 309.308,0C315.214,0 319.964,4.773 319.964,10.656Z" style="fill:rgb(172,146,235);fill-rule:nonzero;"/>
            <path d="M256.004,96.13C250.113,96.13 245.332,100.911 245.332,106.794L245.332,170.776C245.332,176.659 250.113,181.432 256.004,181.432C261.879,181.432 266.66,176.659 266.66,170.776L266.66,106.794C266.66,100.911 261.879,96.13 256.004,96.13Z" style="fill:rgb(255,206,84);fill-rule:nonzero;"/>
            <path d="M437.272,213.423C431.366,213.423 426.616,218.196 426.616,224.087L426.616,288.054C426.616,293.96 431.366,298.726 437.272,298.726C443.146,298.726 447.926,293.96 447.926,288.054L447.926,224.087C447.927,218.197 443.146,213.423 437.272,213.423Z" style="fill:rgb(246,187,66);fill-rule:nonzero;"/>
            <path d="M458.583,266.734L415.93,266.734C410.055,266.734 405.274,261.961 405.274,256.078C405.274,250.187 410.055,245.414 415.93,245.414L458.583,245.414C464.489,245.414 469.239,250.187 469.239,256.078C469.239,261.961 464.489,266.734 458.583,266.734Z" style="fill:rgb(255,206,84);fill-rule:nonzero;"/>
        </g>
    </g>
    <g transform="matrix(1,0,0,1,-17,36)">
        <text x="909px" y="94.237px" style="font-family:'Futura-Medium', 'Futura', sans-serif;font-weight:500;font-size:36px;">NIGHTL<tspan x="1037.76px " y="94.237px ">Y</tspan></text>
    </g>
</svg>
