<?xml version="1.0" encoding="utf-8"?>
<!-- Generator: Adobe Illustrator 18.1.0, SVG Export Plug-In . SVG Version: 6.00 Build 0)  -->
<!DOCTYPE svg PUBLIC "-//W3C//DTD SVG 1.1//EN" "http://www.w3.org/Graphics/SVG/1.1/DTD/svg11.dtd">
<svg version="1.1" id="GDC_Legacy_Archive" xmlns="http://www.w3.org/2000/svg" xmlns:xlink="http://www.w3.org/1999/xlink" x="0px"
	 y="0px" viewBox="0 0 1086.4 190.1" enable-background="new 0 0 1086.4 190.1" xml:space="preserve">
<g>
	<g>
		<path fill="#BF063B" d="M308.4,43h7.8v35h-7.8l-16.7-22v22h-7.8V43h7.3l17.2,22.6V43z"/>
		<path fill="#BF063B" d="M349.8,78l-3.3-7.6h-14.7l-3.3,7.6h-8.3l15.1-35h7.6l15.1,35H349.8z M339.2,53.4l-4.4,10.2h8.8L339.2,53.4
			z"/>
		<path fill="#BF063B" d="M374.4,49.8V78h-7.8V49.8h-9.9V43h27.7v6.8H374.4z"/>
		<path fill="#BF063B" d="M390.1,43h7.8v35h-7.8V43z"/>
		<path fill="#BF063B" d="M436,73.2c-3.5,3.5-7.9,5.2-13.1,5.2c-5.2,0-9.5-1.7-13.1-5.2c-3.5-3.5-5.3-7.8-5.3-12.9s1.8-9.5,5.3-12.9
			c3.5-3.5,7.9-5.2,13.1-5.2c5.2,0,9.5,1.7,13.1,5.2c3.5,3.5,5.3,7.8,5.3,12.9S439.6,69.7,436,73.2z M433.4,60.3c0-3.1-1-5.8-3-8
			c-2-2.2-4.5-3.3-7.4-3.3s-5.4,1.1-7.4,3.3c-2,2.2-3,4.9-3,8c0,3.1,1,5.8,3,8c2,2.2,4.5,3.3,7.4,3.3s5.4-1.1,7.4-3.3
			C432.4,66.1,433.4,63.4,433.4,60.3z"/>
		<path fill="#BF063B" d="M472.5,43h7.8v35h-7.8l-16.7-22v22H448V43h7.3l17.2,22.6V43z"/>
		<path fill="#BF063B" d="M513.9,78l-3.3-7.6h-14.7l-3.3,7.6h-8.3l15.1-35h7.6l15.1,35H513.9z M503.3,53.4l-4.4,10.2h8.8L503.3,53.4
			z"/>
		<path fill="#BF063B" d="M526.3,78V43h7.8v28.1H549v7H526.3z"/>
		<path fill="#BF063B" d="M584.1,71.1c3.8,0,7-1.5,9.4-4.6l5,5.2c-4,4.5-8.7,6.7-14.1,6.7c-5.4,0-9.8-1.7-13.3-5.1
			c-3.5-3.4-5.2-7.7-5.2-12.9c0-5.2,1.8-9.5,5.3-13c3.6-3.5,7.9-5.2,13.1-5.2c5.7,0,10.6,2.2,14.4,6.6l-4.9,5.5
			c-2.5-3.1-5.5-4.6-9.2-4.6c-2.9,0-5.5,1-7.5,2.9c-2.1,1.9-3.1,4.5-3.1,7.8c0,3.3,1,5.9,3,7.8C578.9,70.1,581.3,71.1,584.1,71.1z"
			/>
		<path fill="#BF063B" d="M629.4,78l-3.3-7.6h-14.7l-3.3,7.6h-8.3L615,43h7.6l15.1,35H629.4z M618.8,53.4l-4.4,10.2h8.8L618.8,53.4z
			"/>
		<path fill="#BF063B" d="M666.3,43h7.8v35h-7.8l-16.7-22v22h-7.8V43h7.3l17.2,22.6V43z"/>
		<path fill="#BF063B" d="M698.8,71.1c3.8,0,7-1.5,9.4-4.6l5,5.2c-4,4.5-8.7,6.7-14.1,6.7c-5.4,0-9.8-1.7-13.3-5.1
			c-3.5-3.4-5.2-7.7-5.2-12.9c0-5.2,1.8-9.5,5.3-13c3.6-3.5,7.9-5.2,13.1-5.2c5.7,0,10.6,2.2,14.4,6.6l-4.9,5.5
			c-2.5-3.1-5.5-4.6-9.2-4.6c-2.9,0-5.5,1-7.5,2.9c-2.1,1.9-3.1,4.5-3.1,7.8c0,3.3,1,5.9,3,7.8C693.6,70.1,696,71.1,698.8,71.1z"/>
		<path fill="#BF063B" d="M744.7,43v7h-17.4v7.2H743v6.7h-15.7v7.3h18V78h-25.8V43H744.7z"/>
		<path fill="#BF063B" d="M780.7,54.6c0,5.6-2.2,9.2-6.7,10.9l8.9,12.5h-9.6l-7.8-11.2h-5.4V78h-7.8V43h13.3c5.4,0,9.3,0.9,11.7,2.8
			C779.5,47.6,780.7,50.5,780.7,54.6z M771.2,58.8c1-0.9,1.5-2.2,1.5-4.1s-0.5-3.2-1.5-3.9c-1-0.7-2.8-1.1-5.3-1.1h-5.9v10.4h5.7
			C768.5,60.1,770.3,59.7,771.2,58.8z"/>
		<path fill="#BF063B" d="M801.9,43h7.8v35h-7.8V43z"/>
		<path fill="#BF063B" d="M842.9,43h7.8v35h-7.8l-16.7-22v22h-7.8V43h7.3l17.2,22.6V43z"/>
		<path fill="#BF063B" d="M867.5,50c-0.8,0.6-1.1,1.4-1.1,2.5c0,1,0.5,1.8,1.4,2.4c0.9,0.6,3,1.3,6.4,2.1s5.9,2,7.7,3.7
			c1.8,1.6,2.8,4,2.8,7.2c0,3.1-1.2,5.7-3.5,7.6c-2.4,2-5.5,2.9-9.3,2.9c-5.5,0-10.5-2.1-15-6.2l4.7-5.7c3.8,3.3,7.3,5,10.5,5
			c1.4,0,2.6-0.3,3.4-0.9c0.8-0.6,1.2-1.5,1.2-2.5c0-1.1-0.4-1.9-1.3-2.5c-0.9-0.6-2.6-1.2-5.2-1.9c-4.1-1-7.1-2.2-8.9-3.8
			c-1.9-1.6-2.8-4-2.8-7.3c0-3.3,1.2-5.9,3.6-7.7c2.4-1.8,5.4-2.7,8.9-2.7c2.3,0,4.7,0.4,7,1.2c2.3,0.8,4.4,1.9,6.1,3.4l-4,5.7
			c-3-2.3-6.2-3.5-9.4-3.5C869.3,49.1,868.3,49.4,867.5,50z"/>
		<path fill="#BF063B" d="M905.9,49.8V78H898V49.8h-9.9V43h27.7v6.8H905.9z"/>
		<path fill="#BF063B" d="M921.5,43h7.8v35h-7.8V43z"/>
		<path fill="#BF063B" d="M952.8,49.8V78H945V49.8h-9.9V43h27.7v6.8H952.8z"/>
		<path fill="#BF063B" d="M977.7,69c1.3,1.6,3.1,2.4,5.3,2.4s4-0.8,5.2-2.4s1.9-3.8,1.9-6.6V43h7.8v19.6c0,5.1-1.4,9-4.2,11.7
			c-2.8,2.7-6.4,4.1-10.8,4.1c-4.4,0-8-1.4-10.8-4.1c-2.8-2.7-4.2-6.6-4.2-11.7V43h7.8v19.4C975.8,65.2,976.4,67.4,977.7,69z"/>
		<path fill="#BF063B" d="M1020.9,49.8V78h-7.8V49.8h-9.9V43h27.7v6.8H1020.9z"/>
		<path fill="#BF063B" d="M1061.9,43v7h-17.4v7.2h15.7v6.7h-15.7v7.3h18V78h-25.8V43H1061.9z"/>
		<path fill="#65666A" d="M319.9,126.1h11.7v18.5c-5.2,5.8-12.3,8.7-21.5,8.7c-7.7,0-14.1-2.5-19.3-7.6s-7.8-11.5-7.8-19.2
			c0-7.7,2.7-14.2,8-19.4c5.3-5.2,11.7-7.8,19.2-7.8c7.5,0,14,2.5,19.5,7.4l-6,8.7c-2.3-2-4.5-3.4-6.5-4.2c-2-0.8-4.1-1.2-6.4-1.2
			c-4.4,0-8.2,1.5-11.2,4.5c-3,3-4.6,7-4.6,11.9c0,4.9,1.5,8.9,4.4,11.8c2.9,3,6.4,4.4,10.4,4.4c4,0,7.4-0.8,10.1-2.3V126.1z"/>
		<path fill="#65666A" d="M381.8,107.3c5,4.6,7.5,10.9,7.5,19c0,8.1-2.4,14.5-7.3,19.3c-4.9,4.7-12.3,7.1-22.2,7.1H342v-52.2h18.4
			C369.7,100.5,376.9,102.8,381.8,107.3z M373.3,138.4c2.9-2.7,4.3-6.6,4.3-11.7c0-5.1-1.4-9.1-4.3-11.8c-2.9-2.8-7.3-4.1-13.2-4.1
			h-6.5v31.7h7.4C366.3,142.4,370.4,141.1,373.3,138.4z"/>
		<path fill="#65666A" d="M423.4,142.4c5.7,0,10.4-2.3,14-6.8l7.5,7.7c-5.9,6.7-12.9,10-20.9,10c-8,0-14.7-2.5-19.9-7.6
			c-5.2-5.1-7.8-11.5-7.8-19.2c0-7.7,2.7-14.2,8-19.4c5.3-5.2,11.8-7.8,19.5-7.8c8.6,0,15.7,3.3,21.5,9.8l-7.2,8.2
			c-3.7-4.6-8.3-6.9-13.7-6.9c-4.4,0-8.1,1.4-11.2,4.3c-3.1,2.9-4.7,6.7-4.7,11.6c0,4.9,1.5,8.8,4.4,11.7
			C415.6,140.9,419.2,142.4,423.4,142.4z"/>
		<path fill="#65666A" d="M473.8,152.7v-52.2h11.6v41.8h22.3v10.4H473.8z"/>
		<path fill="#65666A" d="M549.9,146.9c-4.5,4.3-9.8,6.4-15.9,6.4s-11.1-1.9-15.1-5.6c-4-3.8-6-8.8-6-15.1c0-6.3,2-11.4,6.1-15.1
			s8.8-5.6,14.4-5.6c5.5,0,10.2,1.7,14.1,5c3.9,3.3,5.8,7.9,5.8,13.7v6h-29.3c0.3,2.2,1.5,4,3.4,5.4s4.1,2.1,6.6,2.1
			c3.9,0,7.2-1.3,9.7-4L549.9,146.9z M539.1,123.1c-1.5-1.3-3.4-1.9-5.6-1.9c-2.2,0-4.2,0.7-6.1,2c-1.8,1.3-2.9,3.2-3.2,5.5h17.6
			C541.5,126.2,540.7,124.4,539.1,123.1z"/>
		<path fill="#65666A" d="M590.9,145.9c-3.5,3.9-7.9,5.9-13.2,5.9c-5.3,0-9.7-1.8-13.3-5.3c-3.6-3.6-5.4-8.3-5.4-14.3
			c0-5.9,1.9-10.8,5.6-14.6c3.7-3.8,8-5.7,12.7-5.7s8.7,2,11.9,5.9v-5.3h11.2v35c0,3.6-0.6,6.8-1.9,9.6c-1.2,2.8-2.9,5-5,6.6
			c-4.1,3.3-9,4.9-14.6,4.9c-3,0-6-0.5-9.1-1.5c-3.1-1-5.8-2.4-8.2-4.1l4.3-8.4c3.7,2.8,7.6,4.2,11.7,4.2s7.4-1,9.7-3.1
			C589.7,153.6,590.9,150.3,590.9,145.9z M589.4,131.8c0-3.2-0.9-5.7-2.7-7.6c-1.8-1.8-4-2.8-6.6-2.8s-4.9,0.9-6.8,2.8
			c-1.9,1.8-2.9,4.4-2.9,7.5c0,3.2,0.9,5.8,2.8,7.7c1.9,2,4.1,2.9,6.8,2.9s4.9-1,6.7-2.9S589.4,135,589.4,131.8z"/>
		<path fill="#65666A" d="M645.1,152.7h-10.5v-4.9c-2.9,3.6-6.5,5.5-10.7,5.5s-7.8-1.2-10.7-3.7c-2.9-2.5-4.3-5.8-4.3-9.9
			s1.5-7.2,4.5-9.2c3-2,7.1-3.1,12.2-3.1h8.4v-0.2c0-4.3-2.3-6.4-6.8-6.4c-1.9,0-4,0.4-6.2,1.2c-2.2,0.8-4,1.7-5.5,2.9l-5-7.2
			c5.3-3.8,11.3-5.8,18.1-5.8c4.9,0,8.9,1.2,11.9,3.7c3.1,2.4,4.6,6.3,4.6,11.6V152.7z M633.9,137.4v-1.9h-7c-4.5,0-6.7,1.4-6.7,4.2
			c0,1.4,0.5,2.6,1.6,3.3c1.1,0.8,2.6,1.2,4.6,1.2s3.7-0.6,5.3-1.8S633.9,139.4,633.9,137.4z"/>
		<path fill="#65666A" d="M674.6,143.4c3.7,0,7.1-1.9,10.1-5.6l6.6,7.5c-5.2,5.4-10.8,8.1-16.8,8.1c-6,0-11.1-1.9-15.3-5.7
			c-4.2-3.8-6.2-8.8-6.2-14.9c0-6.1,2.1-11.2,6.3-15c4.2-3.9,9.2-5.8,15-5.8c2.9,0,5.8,0.6,8.8,1.8c3,1.2,5.6,3,7.8,5.3l-5.8,7.6
			c-1.3-1.5-2.9-2.7-4.7-3.6s-3.7-1.3-5.6-1.3c-2.9,0-5.5,1-7.6,2.9c-2.1,1.9-3.2,4.6-3.2,8c0,3.4,1.1,6.1,3.2,8
			C669.3,142.4,671.8,143.4,674.6,143.4z"/>
		<path fill="#65666A" d="M705.8,168.5c-3.9,0-7.6-1.6-11.1-4.8l5.1-8.3c1.9,1.8,3.8,2.8,5.8,2.8c1,0,1.9-0.5,2.7-1.5
			c0.7-1,1.1-2.1,1.1-3.2s-5.2-14.8-15.5-40.9h11.9l9.8,25l9.8-25h11.9l-18.7,47.3c-1.1,2.7-2.8,4.9-5.1,6.4
			C711.2,167.8,708.6,168.5,705.8,168.5z"/>
		<path fill="#65666A" d="M800.9,152.7l-4.9-11.3h-21.9l-4.9,11.3h-12.4l22.6-52.2h11.3l22.6,52.2H800.9z M785.2,116l-6.6,15.2h13.1
			L785.2,116z"/>
		<path fill="#65666A" d="M839.4,122.4c-3.3,0-5.8,1.2-7.5,3.5c-1.6,2.4-2.5,5.5-2.5,9.4v17.4h-11.2v-40.2h11.2v5.3
			c1.4-1.6,3.2-3,5.4-4.2c2.2-1.1,4.4-1.7,6.6-1.8l0.1,10.5H839.4z"/>
		<path fill="#65666A" d="M868.2,143.4c3.7,0,7.1-1.9,10.1-5.6l6.6,7.5c-5.2,5.4-10.8,8.1-16.8,8.1c-6,0-11.1-1.9-15.3-5.7
			c-4.2-3.8-6.2-8.8-6.2-14.9c0-6.1,2.1-11.2,6.3-15c4.2-3.9,9.2-5.8,15-5.8c2.9,0,5.8,0.6,8.8,1.8c3,1.2,5.6,3,7.8,5.3l-5.8,7.6
			c-1.3-1.5-2.9-2.7-4.7-3.6s-3.7-1.3-5.6-1.3c-2.9,0-5.5,1-7.6,2.9c-2.1,1.9-3.2,4.6-3.2,8c0,3.4,1.1,6.1,3.2,8
			C862.9,142.4,865.4,143.4,868.2,143.4z"/>
		<path fill="#65666A" d="M903.6,131.1v21.7h-11.2V97.3h11.2V117c3.4-3.4,7.2-5.2,11.4-5.2c4.2,0,7.8,1.5,10.6,4.5
			c2.9,3,4.3,7,4.3,11.9v24.4h-11.2v-22c0-6.2-2.3-9.3-6.8-9.3c-2.2,0-4.2,0.8-5.9,2.4S903.6,127.9,903.6,131.1z"/>
		<path fill="#65666A" d="M941,107.4c-1.3-1.3-1.9-2.8-1.9-4.7s0.6-3.4,1.9-4.7c1.3-1.3,2.8-1.9,4.7-1.9s3.4,0.6,4.7,1.9
			c1.3,1.3,1.9,2.8,1.9,4.7s-0.6,3.4-1.9,4.7s-2.8,1.9-4.7,1.9S942.3,108.7,941,107.4z M951.3,152.7h-11.2v-40.2h11.2V152.7z"/>
		<path fill="#65666A" d="M972.7,152.7l-15.9-40.3h11.6l10,25.3l10-25.3h11.6l-15.9,40.3H972.7z"/>
		<path fill="#65666A" d="M1040.5,146.9c-4.5,4.3-9.8,6.4-15.9,6.4c-6.1,0-11.1-1.9-15.1-5.6c-4-3.8-6-8.8-6-15.1
			c0-6.3,2-11.4,6.1-15.1s8.8-5.6,14.4-5.6c5.5,0,10.2,1.7,14.1,5c3.9,3.3,5.8,7.9,5.8,13.7v6h-29.3c0.3,2.2,1.5,4,3.4,5.4
			s4.1,2.1,6.6,2.1c3.9,0,7.2-1.3,9.7-4L1040.5,146.9z M1029.7,123.1c-1.5-1.3-3.4-1.9-5.6-1.9c-2.2,0-4.2,0.7-6.1,2
			c-1.8,1.3-2.9,3.2-3.2,5.5h17.6C1032.2,126.2,1031.3,124.4,1029.7,123.1z"/>
	</g>
	<path fill="#BF063B" d="M204,22.5h-12.4l38.6,71l-40.1,72h12.4c4.7,0,9-2.5,11.3-6.7l36.4-65.4l-34.9-64.2
		C213.1,25.1,208.8,22.5,204,22.5z"/>
	<path fill="#65666A" d="M180.7,23H31c-6,0-10.8,4.8-10.8,10.8v121.4c0,6,4.8,10.8,10.8,10.8h148.2l40.1-72L180.7,23z"/>
	<g>
		<polygon fill="#FFFFFF" points="85.5,107.9 53.8,60.1 44,60.1 44,125.8 54,125.8 54,79.2 84.8,125.7 84.9,125.8 95.6,125.8 
			95.6,60.1 85.5,60.1 		"/>
		<rect x="107.2" y="60.1" fill="#FFFFFF" width="11.3" height="65.6"/>
		<polygon fill="#FFFFFF" points="171,60.1 171,88.3 140.5,88.3 140.5,60.1 129.2,60.1 129.2,125.8 140.5,125.8 140.5,99.2 
			171,99.2 171,125.8 182.3,125.8 182.3,60.1 		"/>
	</g>
</g>
</svg>
