<?xml version="1.0" encoding="utf-8"?>
<!-- Generator: Adobe Illustrator 18.1.0, SVG Export Plug-In . SVG Version: 6.00 Build 0)  -->
<!DOCTYPE svg PUBLIC "-//W3C//DTD SVG 1.1//EN" "http://www.w3.org/Graphics/SVG/1.1/DTD/svg11.dtd">
<svg version="1.1" id="Layer_1" xmlns="http://www.w3.org/2000/svg" xmlns:xlink="http://www.w3.org/1999/xlink" x="0px" y="0px"
	 viewBox="0 0 1042.2 143.5" style="enable-background:new 0 0 1042.2 143.5;" xml:space="preserve">
<g>
	<g>
		<path style="fill:#BF063B;" d="M288.1,20.5h7.8v35h-7.8l-16.7-22v22h-7.8v-35h7.3l17.2,22.6V20.5z"/>
		<path style="fill:#BF063B;" d="M329.6,55.6l-3.3-7.6h-14.7l-3.3,7.6H300l15.1-35h7.6l15.1,35H329.6z M319,30.9l-4.4,10.2h8.8
			L319,30.9z"/>
		<path style="fill:#BF063B;" d="M354.2,27.3v28.3h-7.8V27.3h-9.9v-6.8h27.7v6.8H354.2z"/>
		<path style="fill:#BF063B;" d="M369.9,20.5h7.8v35h-7.8V20.5z"/>
		<path style="fill:#BF063B;" d="M415.8,50.7c-3.5,3.5-7.9,5.2-13.1,5.2s-9.5-1.7-13.1-5.2c-3.5-3.5-5.3-7.8-5.3-12.9
			s1.8-9.5,5.3-12.9c3.5-3.5,7.9-5.2,13.1-5.2s9.5,1.7,13.1,5.2c3.5,3.5,5.3,7.8,5.3,12.9S419.3,47.3,415.8,50.7z M413.1,37.8
			c0-3.1-1-5.8-3-8c-2-2.2-4.5-3.3-7.4-3.3c-2.9,0-5.4,1.1-7.4,3.3c-2,2.2-3,4.9-3,8c0,3.1,1,5.8,3,8c2,2.2,4.5,3.3,7.4,3.3
			c2.9,0,5.4-1.1,7.4-3.3C412.1,43.6,413.1,41,413.1,37.8z"/>
		<path style="fill:#BF063B;" d="M452.2,20.5h7.8v35h-7.8l-16.7-22v22h-7.8v-35h7.3l17.2,22.6V20.5z"/>
		<path style="fill:#BF063B;" d="M493.7,55.6l-3.3-7.6h-14.7l-3.3,7.6h-8.3l15.1-35h7.6l15.1,35H493.7z M483.1,30.9l-4.4,10.2h8.8
			L483.1,30.9z"/>
		<path style="fill:#BF063B;" d="M506,55.6v-35h7.8v28.1h14.9v7H506z"/>
		<path style="fill:#BF063B;" d="M563.9,48.6c3.8,0,7-1.5,9.4-4.6l5,5.2c-4,4.5-8.7,6.7-14.1,6.7s-9.8-1.7-13.3-5.1
			c-3.5-3.4-5.2-7.7-5.2-12.9c0-5.2,1.8-9.5,5.3-13c3.6-3.5,7.9-5.2,13.1-5.2c5.8,0,10.6,2.2,14.4,6.6l-4.9,5.5
			c-2.5-3.1-5.5-4.6-9.2-4.6c-2.9,0-5.5,1-7.5,2.9c-2.1,1.9-3.1,4.5-3.1,7.8c0,3.3,1,5.9,3,7.8C558.7,47.7,561,48.6,563.9,48.6z"/>
		<path style="fill:#BF063B;" d="M609.2,55.6l-3.3-7.6h-14.7l-3.3,7.6h-8.3l15.1-35h7.6l15.1,35H609.2z M598.6,30.9l-4.4,10.2h8.8
			L598.6,30.9z"/>
		<path style="fill:#BF063B;" d="M646.1,20.5h7.8v35h-7.8l-16.7-22v22h-7.8v-35h7.3l17.2,22.6V20.5z"/>
		<path style="fill:#BF063B;" d="M678.6,48.6c3.8,0,7-1.5,9.4-4.6l5,5.2c-4,4.5-8.7,6.7-14.1,6.7c-5.4,0-9.8-1.7-13.3-5.1
			c-3.5-3.4-5.2-7.7-5.2-12.9c0-5.2,1.8-9.5,5.3-13c3.6-3.5,7.9-5.2,13.1-5.2c5.7,0,10.6,2.2,14.4,6.6l-4.9,5.5
			c-2.5-3.1-5.5-4.6-9.2-4.6c-2.9,0-5.5,1-7.5,2.9c-2.1,1.9-3.1,4.5-3.1,7.8c0,3.3,1,5.9,3,7.8C673.4,47.7,675.8,48.6,678.6,48.6z"
			/>
		<path style="fill:#BF063B;" d="M724.5,20.5v7h-17.4v7.2h15.7v6.7h-15.7v7.3h18v6.9h-25.8v-35H724.5z"/>
		<path style="fill:#BF063B;" d="M760.4,32.1c0,5.6-2.2,9.2-6.7,10.9l8.9,12.5H753l-7.8-11.2h-5.4v11.2H732v-35h13.3
			c5.4,0,9.3,0.9,11.7,2.8C759.3,25.1,760.4,28.1,760.4,32.1z M751,36.3c1-0.9,1.5-2.2,1.5-4.1S752,29,751,28.3
			c-1-0.7-2.8-1.1-5.3-1.1h-5.9v10.4h5.7C748.2,37.6,750.1,37.2,751,36.3z"/>
		<path style="fill:#BF063B;" d="M781.7,20.5h7.8v35h-7.8V20.5z"/>
		<path style="fill:#BF063B;" d="M822.7,20.5h7.8v35h-7.8l-16.7-22v22h-7.8v-35h7.3l17.2,22.6V20.5z"/>
		<path style="fill:#BF063B;" d="M847.3,27.5c-0.8,0.6-1.1,1.4-1.1,2.5c0,1,0.5,1.8,1.4,2.4c0.9,0.6,3,1.3,6.4,2.1s5.9,2,7.7,3.7
			c1.8,1.6,2.8,4,2.8,7.2c0,3.1-1.2,5.7-3.5,7.6c-2.4,2-5.5,2.9-9.3,2.9c-5.5,0-10.5-2.1-15-6.2l4.7-5.7c3.8,3.3,7.3,5,10.5,5
			c1.4,0,2.6-0.3,3.4-0.9c0.8-0.6,1.2-1.5,1.2-2.5c0-1.1-0.4-1.9-1.3-2.5c-0.9-0.6-2.6-1.2-5.2-1.9c-4.1-1-7.1-2.2-8.9-3.8
			c-1.9-1.6-2.8-4-2.8-7.3c0-3.3,1.2-5.9,3.6-7.7c2.4-1.8,5.4-2.7,8.9-2.7c2.3,0,4.7,0.4,7,1.2c2.3,0.8,4.4,1.9,6.1,3.4l-4,5.7
			c-3-2.3-6.2-3.5-9.4-3.5C849.1,26.6,848.1,26.9,847.3,27.5z"/>
		<path style="fill:#BF063B;" d="M885.6,27.3v28.3h-7.8V27.3h-9.9v-6.8h27.7v6.8H885.6z"/>
		<path style="fill:#BF063B;" d="M901.3,20.5h7.8v35h-7.8V20.5z"/>
		<path style="fill:#BF063B;" d="M932.6,27.3v28.3h-7.8V27.3h-9.9v-6.8h27.7v6.8H932.6z"/>
		<path style="fill:#BF063B;" d="M957.5,46.5c1.3,1.6,3.1,2.4,5.3,2.4c2.2,0,4-0.8,5.2-2.4s1.9-3.8,1.9-6.6V20.5h7.8v19.6
			c0,5.1-1.4,9-4.2,11.7c-2.8,2.7-6.4,4.1-10.8,4.1c-4.4,0-8-1.4-10.8-4.1c-2.8-2.7-4.2-6.6-4.2-11.7V20.5h7.8v19.4
			C955.5,42.7,956.2,44.9,957.5,46.5z"/>
		<path style="fill:#BF063B;" d="M1000.7,27.3v28.3h-7.8V27.3H983v-6.8h27.7v6.8H1000.7z"/>
		<path style="fill:#BF063B;" d="M1041.6,20.5v7h-17.4v7.2h15.7v6.7h-15.7v7.3h18v6.9h-25.8v-35H1041.6z"/>
		<path style="fill:#65666A;" d="M299.6,103.7h11.7v18.5c-5.2,5.8-12.3,8.7-21.5,8.7c-7.7,0-14.1-2.5-19.3-7.6
			c-5.2-5.1-7.8-11.5-7.8-19.2c0-7.7,2.7-14.2,8-19.4c5.3-5.2,11.7-7.8,19.2-7.8c7.5,0,14,2.5,19.5,7.4l-6,8.7
			c-2.3-2-4.5-3.4-6.5-4.2c-2-0.8-4.1-1.2-6.4-1.2c-4.4,0-8.2,1.5-11.2,4.5c-3,3-4.6,7-4.6,11.9s1.5,8.9,4.4,11.8
			c2.9,3,6.4,4.4,10.4,4.4c4,0,7.4-0.8,10.1-2.3V103.7z"/>
		<path style="fill:#65666A;" d="M361.6,84.9c5,4.6,7.5,10.9,7.5,19c0,8.1-2.4,14.5-7.3,19.3s-12.3,7.1-22.2,7.1h-17.8V78h18.4
			C349.5,78,356.6,80.3,361.6,84.9z M353.1,115.9c2.9-2.7,4.3-6.6,4.3-11.7c0-5.1-1.4-9.1-4.3-11.8c-2.9-2.8-7.3-4.1-13.2-4.1h-6.5
			v31.7h7.4C346.1,119.9,350.2,118.6,353.1,115.9z"/>
		<path style="fill:#65666A;" d="M403.1,119.9c5.7,0,10.4-2.3,14-6.8l7.5,7.7c-5.9,6.7-12.9,10-20.9,10s-14.7-2.5-19.9-7.6
			c-5.2-5.1-7.8-11.5-7.8-19.2c0-7.7,2.7-14.2,8-19.4c5.3-5.2,11.8-7.8,19.5-7.8c8.6,0,15.7,3.3,21.5,9.8l-7.2,8.2
			C414,90.3,409.4,88,404,88c-4.4,0-8.1,1.4-11.2,4.3c-3.1,2.9-4.7,6.7-4.7,11.6c0,4.9,1.5,8.8,4.4,11.7S399,119.9,403.1,119.9z"/>
		<path style="fill:#65666A;" d="M490.4,84.9c5,4.6,7.5,10.9,7.5,19c0,8.1-2.4,14.5-7.3,19.3s-12.3,7.1-22.2,7.1h-17.8V78H469
			C478.3,78,485.5,80.3,490.4,84.9z M481.9,115.9c2.9-2.7,4.3-6.6,4.3-11.7c0-5.1-1.4-9.1-4.3-11.8c-2.9-2.8-7.3-4.1-13.2-4.1h-6.5
			v31.7h7.4C474.9,119.9,479,118.6,481.9,115.9z"/>
		<path style="fill:#65666A;" d="M540.5,130.2h-10.5v-4.9c-2.9,3.6-6.5,5.5-10.7,5.5c-4.3,0-7.8-1.2-10.7-3.7
			c-2.9-2.5-4.3-5.8-4.3-9.9s1.5-7.2,4.5-9.2c3-2,7.1-3.1,12.2-3.1h8.4v-0.2c0-4.3-2.3-6.4-6.8-6.4c-1.9,0-4,0.4-6.2,1.2
			c-2.2,0.8-4,1.7-5.5,2.9l-5-7.2c5.3-3.8,11.3-5.8,18.1-5.8c4.9,0,8.9,1.2,11.9,3.7c3.1,2.4,4.6,6.3,4.6,11.6V130.2z M529.2,114.9
			V113h-7c-4.5,0-6.7,1.4-6.7,4.2c0,1.4,0.5,2.6,1.6,3.3c1.1,0.8,2.6,1.2,4.6,1.2c2,0,3.7-0.6,5.3-1.8
			C528.4,118.6,529.2,117,529.2,114.9z"/>
		<path style="fill:#65666A;" d="M563.6,98.1v18c0,1.5,0.4,2.8,1.2,3.6c0.8,0.9,1.7,1.3,2.8,1.3c2.1,0,3.9-0.9,5.3-2.8l4.2,7.8
			c-3.5,3.2-7.2,4.8-11,4.8c-3.9,0-7.1-1.3-9.8-3.8c-2.7-2.5-4-6-4-10.4V98.1h-4.7v-8.1h4.7V78h11.3v12h9.7v8.1H563.6z"/>
		<path style="fill:#65666A;" d="M617.2,130.2h-10.5v-4.9c-2.9,3.6-6.5,5.5-10.7,5.5c-4.3,0-7.8-1.2-10.7-3.7
			c-2.9-2.5-4.3-5.8-4.3-9.9s1.5-7.2,4.5-9.2c3-2,7.1-3.1,12.2-3.1h8.4v-0.2c0-4.3-2.3-6.4-6.8-6.4c-1.9,0-4,0.4-6.2,1.2
			c-2.2,0.8-4,1.7-5.5,2.9l-5-7.2c5.3-3.8,11.3-5.8,18.1-5.8c4.9,0,8.9,1.2,11.9,3.7c3.1,2.4,4.6,6.3,4.6,11.6V130.2z M606,114.9
			V113h-7c-4.5,0-6.7,1.4-6.7,4.2c0,1.4,0.5,2.6,1.6,3.3c1.1,0.8,2.6,1.2,4.6,1.2c2,0,3.7-0.6,5.3-1.8
			C605.2,118.6,606,117,606,114.9z"/>
		<path style="fill:#65666A;" d="M684.3,82.7c3.7,3.1,5.5,7.9,5.5,14.3c0,6.4-1.9,11.2-5.6,14.2c-3.8,3-9.5,4.5-17.2,4.5h-6.9v14.6
			h-11.6V78h18.4C674.8,78,680.6,79.6,684.3,82.7z M675.7,103.2c1.4-1.6,2.1-3.9,2.1-6.9c0-3-0.9-5.2-2.7-6.4
			c-1.8-1.3-4.6-1.9-8.5-1.9h-6.6v17.5h7.8C671.7,105.6,674.3,104.8,675.7,103.2z"/>
		<path style="fill:#65666A;" d="M734.4,110.2c0,5.8-2,10.7-6,14.7c-4,4-9.1,6-15.2,6c-6.1,0-11.2-2-15.2-6c-4-4-6-8.9-6-14.7
			c0-5.8,2-10.7,6-14.7c4-4,9.1-6,15.2-6c6.1,0,11.2,2,15.2,6C732.4,99.4,734.4,104.3,734.4,110.2z M703.2,110.2c0,3.3,0.9,6,2.8,8
			c1.9,2.1,4.3,3.1,7.2,3.1s5.3-1,7.2-3.1c1.9-2.1,2.8-4.7,2.8-8s-0.9-6-2.8-8.1c-1.9-2.1-4.3-3.1-7.2-3.1s-5.3,1-7.2,3.1
			C704.1,104.2,703.2,106.9,703.2,110.2z"/>
		<path style="fill:#65666A;" d="M760.8,99.9c-3.3,0-5.8,1.2-7.5,3.5c-1.6,2.4-2.5,5.5-2.5,9.4v17.4h-11.2V90.1h11.2v5.3
			c1.4-1.6,3.2-3,5.4-4.2c2.2-1.1,4.4-1.7,6.6-1.8l0.1,10.5H760.8z"/>
		<path style="fill:#65666A;" d="M783.8,98.1v18c0,1.5,0.4,2.8,1.2,3.6c0.8,0.9,1.7,1.3,2.8,1.3c2.1,0,3.9-0.9,5.3-2.8l4.2,7.8
			c-3.5,3.2-7.2,4.8-11,4.8c-3.9,0-7.1-1.3-9.8-3.8c-2.7-2.5-4-6-4-10.4V98.1h-4.7v-8.1h4.7V78h11.3v12h9.7v8.1H783.8z"/>
		<path style="fill:#65666A;" d="M837.4,130.2h-10.5v-4.9c-2.9,3.6-6.5,5.5-10.7,5.5c-4.3,0-7.8-1.2-10.7-3.7
			c-2.9-2.5-4.3-5.8-4.3-9.9s1.5-7.2,4.5-9.2c3-2,7.1-3.1,12.2-3.1h8.4v-0.2c0-4.3-2.3-6.4-6.8-6.4c-1.9,0-4,0.4-6.2,1.2
			c-2.2,0.8-4,1.7-5.5,2.9l-5-7.2c5.3-3.8,11.3-5.8,18.1-5.8c4.9,0,8.9,1.2,11.9,3.7c3.1,2.4,4.6,6.3,4.6,11.6V130.2z M826.1,114.9
			V113h-7c-4.5,0-6.7,1.4-6.7,4.2c0,1.4,0.5,2.6,1.6,3.3c1.1,0.8,2.6,1.2,4.6,1.2c2,0,3.7-0.6,5.3-1.8
			C825.3,118.6,826.1,117,826.1,114.9z"/>
		<path style="fill:#65666A;" d="M858.8,130.2h-11.2V74.8h11.2V130.2z"/>
	</g>
	<path style="fill:#BF063B;" d="M183.8,0h-12.4L210,71l-40.1,72h12.4c4.7,0,9-2.5,11.3-6.7L230.1,71L195.2,6.8
		C192.9,2.6,188.5,0,183.8,0z"/>
	<path style="fill:#65666A;" d="M160.5,0.5H10.8C4.8,0.5,0,5.3,0,11.3v121.4c0,6,4.8,10.8,10.8,10.8H159l40.1-72L160.5,0.5z"/>
	<g>
		<polygon style="fill:#FFFFFF;" points="65.3,85.4 33.6,37.7 23.7,37.7 23.7,103.3 33.8,103.3 33.8,56.7 64.6,103.2 64.7,103.3 
			75.3,103.3 75.3,37.7 65.3,37.7 		"/>
		<rect x="87" y="37.7" style="fill:#FFFFFF;" width="11.3" height="65.6"/>
		<polygon style="fill:#FFFFFF;" points="150.8,37.7 150.8,65.8 120.3,65.8 120.3,37.7 109,37.7 109,103.3 120.3,103.3 120.3,76.7 
			150.8,76.7 150.8,103.3 162,103.3 162,37.7 		"/>
	</g>
</g>
</svg>
